<?xml version="1.0" encoding="UTF-8" standalone="no" ?>
<!DOCTYPE svg PUBLIC "-//W3C//DTD SVG 1.1//EN" "http://www.w3.org/Graphics/SVG/1.1/DTD/svg11.dtd">
<svg xmlns="http://www.w3.org/2000/svg" xmlns:xlink="http://www.w3.org/1999/xlink" version="1.1" width="1080" height="1080" viewBox="0 0 1080 1080" xml:space="preserve">
<desc>Created with Fabric.js 5.2.4</desc>
<defs>
</defs>
<rect x="0" y="0" width="100%" height="100%" fill="transparent"></rect>
<g transform="matrix(1 0 0 1 540 540)" id="5db1f14c-ac7e-4bf9-a2bb-ff2414fc3bed"  >
<rect style="stroke: none; stroke-width: 1; stroke-dasharray: none; stroke-linecap: butt; stroke-dashoffset: 0; stroke-linejoin: miter; stroke-miterlimit: 4; fill: rgb(255,255,255); fill-rule: nonzero; opacity: 1; visibility: hidden;" vector-effect="non-scaling-stroke"  x="-540" y="-540" rx="0" ry="0" width="1080" height="1080" />
</g>
<g transform="matrix(1 0 0 1 540 540)" id="b91b0d32-de40-4f2c-acb7-c2f2d53e8338"  >
</g>
<g transform="matrix(NaN NaN NaN NaN 0 0)"  >
<g style=""   >
</g>
</g>
<g transform="matrix(NaN NaN NaN NaN 0 0)"  >
<g style=""   >
</g>
</g>
<g transform="matrix(0.07 0 0 -0.07 864.22 73.1)"  >
<path style="stroke: none; stroke-width: 1; stroke-dasharray: none; stroke-linecap: butt; stroke-dashoffset: 0; stroke-linejoin: miter; stroke-miterlimit: 4; fill: rgb(173,207,235); fill-rule: nonzero; opacity: 1;" vector-effect="non-scaling-stroke"  transform=" translate(-11795.95, -12486.25)" d="M 11682 12707 C 11563 12656 11464 12607 11459 12597 C 11447 12576 11527 12371 11571 12310 C 11604 12264 11748 12183 11812 12174 C 11870 12166 11944 12190 12050 12249 C 12131 12295 12135 12299 12134 12331 C 12133 12378 12120 12410 12028 12600 C 11948 12765 11926 12800 11906 12800 C 11900 12800 11799 12758 11682 12707 z" stroke-linecap="round" />
</g>
<g transform="matrix(0.07 0 0 -0.07 281.96 100.52)"  >
<path style="stroke: none; stroke-width: 1; stroke-dasharray: none; stroke-linecap: butt; stroke-dashoffset: 0; stroke-linejoin: miter; stroke-miterlimit: 4; fill: rgb(173,207,235); fill-rule: nonzero; opacity: 1;" vector-effect="non-scaling-stroke"  transform=" translate(-3309.56, -12086.63)" d="M 3210 12396 C 3117 12366 3042 12302 2999 12214 C 2966 12147 2966 12037 2998 11965 C 3060 11829 3222 11743 3366 11769 C 3480 11790 3573 11858 3621 11955 C 3641 11996 3645 12020 3645 12090 C 3645 12162 3641 12183 3618 12226 C 3583 12293 3503 12364 3434 12389 C 3373 12412 3269 12416 3210 12396 z" stroke-linecap="round" />
</g>
<g transform="matrix(0.07 0 0 -0.07 736.18 200.48)"  >
<path style="stroke: none; stroke-width: 1; stroke-dasharray: none; stroke-linecap: butt; stroke-dashoffset: 0; stroke-linejoin: miter; stroke-miterlimit: 4; fill: rgb(173,207,235); fill-rule: nonzero; opacity: 1;" vector-effect="non-scaling-stroke"  transform=" translate(-9929.75, -10629.74)" d="M 9891 11651 C 9880 11640 9867 11616 9862 11598 C 9744 11175 9675 10943 9666 10934 C 9660 10928 9534 10872 9385 10811 C 9237 10749 9107 10689 9098 10678 C 9088 10667 9080 10645 9080 10630 C 9080 10615 9088 10596 9098 10587 C 9107 10579 9238 10518 9388 10452 C 9538 10387 9663 10331 9666 10328 C 9668 10325 9712 10167 9763 9977 C 9815 9781 9863 9622 9872 9610 C 9894 9585 9951 9583 9972 9608 C 9981 9617 10033 9782 10087 9975 L 10187 10325 L 10466 10442 C 10629 10511 10752 10569 10763 10581 C 10783 10606 10785 10639 10768 10663 C 10761 10673 10631 10734 10480 10801 C 10329 10867 10201 10925 10197 10930 C 10192 10934 10147 11094 10096 11284 C 10039 11497 9996 11638 9985 11650 C 9962 11675 9916 11676 9891 11651 z" stroke-linecap="round" />
</g>
<g transform="matrix(0.07 0 0 -0.07 432.54 351.41)"  >
<path style="stroke: none; stroke-width: 1; stroke-dasharray: none; stroke-linecap: butt; stroke-dashoffset: 0; stroke-linejoin: miter; stroke-miterlimit: 4; fill: rgb(173,207,235); fill-rule: nonzero; opacity: 1;" vector-effect="non-scaling-stroke"  transform=" translate(-5504.27, -8429.9)" d="M 5463 9451 C 5452 9439 5404 9287 5346 9082 L 5247 8733 L 4974 8619 C 4823 8556 4691 8498 4681 8490 C 4670 8482 4658 8463 4655 8449 C 4643 8400 4678 8378 4969 8252 L 5243 8132 L 5335 7789 C 5386 7599 5432 7435 5438 7424 C 5459 7385 5516 7378 5545 7410 C 5556 7422 5604 7573 5661 7777 C 5715 7967 5761 8125 5763 8126 C 5765 8128 5892 8183 6045 8247 C 6350 8376 6370 8389 6350 8447 C 6338 8481 6346 8477 5975 8639 L 5765 8731 L 5675 9071 C 5626 9259 5577 9425 5568 9441 C 5554 9464 5543 9470 5516 9470 C 5494 9470 5474 9463 5463 9451 z M 5520 9116 C 5520 9094 5637 8665 5649 8643 C 5655 8630 5737 8589 5872 8530 C 5989 8479 6088 8434 6093 8431 C 6097 8427 6006 8384 5889 8335 C 5773 8287 5670 8240 5659 8231 C 5646 8220 5619 8143 5575 7985 C 5499 7718 5499 7718 5492 7745 C 5468 7852 5368 8207 5358 8222 C 5351 8233 5249 8283 5131 8335 C 5014 8387 4915 8431 4913 8434 C 4910 8437 4918 8444 4931 8449 C 5007 8477 5328 8616 5346 8627 C 5363 8638 5382 8692 5436 8885 C 5497 9101 5520 9164 5520 9116 z" stroke-linecap="round" />
</g>
<g transform="matrix(0.07 0 0 -0.07 644.14 314.64)"  >
<path style="stroke: none; stroke-width: 1; stroke-dasharray: none; stroke-linecap: butt; stroke-dashoffset: 0; stroke-linejoin: miter; stroke-miterlimit: 4; fill: rgb(173,207,235); fill-rule: nonzero; opacity: 1;" vector-effect="non-scaling-stroke"  transform=" translate(-8588.38, -8965.87)" d="M 8479 9346 C 8218 9273 8098 8981 8240 8762 C 8382 8542 8695 8508 8879 8691 C 9056 8868 9031 9144 8825 9285 C 8727 9353 8591 9376 8479 9346 z M 8714 9186 C 8872 9109 8903 8915 8778 8790 C 8680 8691 8500 8691 8396 8788 C 8323 8857 8301 8973 8344 9066 C 8408 9203 8571 9256 8714 9186 z" stroke-linecap="round" />
</g>
<g transform="matrix(0.07 0 0 -0.07 272.94 359.26)"  >
<path style="stroke: none; stroke-width: 1; stroke-dasharray: none; stroke-linecap: butt; stroke-dashoffset: 0; stroke-linejoin: miter; stroke-miterlimit: 4; fill: rgb(173,207,235); fill-rule: nonzero; opacity: 1;" vector-effect="non-scaling-stroke"  transform=" translate(-3178.11, -8315.53)" d="M 3060 8691 C 2990 8669 2965 8655 2913 8613 C 2721 8459 2725 8165 2919 8011 C 3129 7846 3439 7917 3553 8157 C 3582 8218 3585 8234 3585 8315 C 3585 8395 3581 8412 3554 8470 C 3466 8656 3251 8753 3060 8691 z" stroke-linecap="round" />
</g>
<g transform="matrix(0.07 0 0 -0.07 867.24 387.21)"  >
<path style="stroke: none; stroke-width: 1; stroke-dasharray: none; stroke-linecap: butt; stroke-dashoffset: 0; stroke-linejoin: miter; stroke-miterlimit: 4; fill: rgb(173,207,235); fill-rule: nonzero; opacity: 1;" vector-effect="non-scaling-stroke"  transform=" translate(-11840, -7908.07)" d="M 11713 8285 C 11610 8253 11509 8164 11462 8062 C 11439 8013 11435 7992 11435 7910 C 11435 7824 11438 7809 11466 7750 C 11590 7491 11942 7436 12139 7645 C 12168 7675 12203 7726 12218 7757 C 12241 7807 12245 7828 12245 7910 C 12244 7994 12241 8012 12216 8064 C 12165 8168 12081 8244 11973 8281 C 11907 8303 11778 8306 11713 8285 z M 11965 8132 C 12054 8086 12104 8006 12104 7910 C 12104 7682 11806 7572 11643 7740 C 11511 7875 11572 8090 11760 8151 C 11804 8166 11922 8155 11965 8132 z" stroke-linecap="round" />
</g>
<g transform="matrix(0.07 0 0 -0.07 722.45 456.9)"  >
<path style="stroke: none; stroke-width: 1; stroke-dasharray: none; stroke-linecap: butt; stroke-dashoffset: 0; stroke-linejoin: miter; stroke-miterlimit: 4; fill: rgb(173,207,235); fill-rule: nonzero; opacity: 1;" vector-effect="non-scaling-stroke"  transform=" translate(-9729.63, -6892.45)" d="M 9695 7916 C 9682 7903 9666 7872 9660 7848 C 9653 7824 9609 7668 9562 7500 L 9475 7196 L 9195 7078 C 8920 6962 8880 6940 8880 6899 C 8880 6856 8909 6839 9185 6719 C 9339 6651 9466 6596 9468 6595 C 9469 6594 9513 6434 9565 6239 C 9639 5962 9664 5881 9681 5868 C 9718 5837 9763 5847 9784 5889 C 9791 5903 9839 6064 9890 6245 C 9941 6427 9988 6580 9994 6586 C 10000 6593 10127 6648 10275 6710 C 10424 6771 10553 6831 10563 6842 C 10584 6867 10585 6908 10564 6931 C 10556 6940 10423 7003 10269 7070 C 10116 7138 9990 7195 9990 7199 C 9989 7229 9799 7905 9789 7915 C 9760 7941 9721 7942 9695 7916 z" stroke-linecap="round" />
</g>
<g transform="matrix(0.07 0 0 -0.07 113.2 484.14)"  >
<path style="stroke: none; stroke-width: 1; stroke-dasharray: none; stroke-linecap: butt; stroke-dashoffset: 0; stroke-linejoin: miter; stroke-miterlimit: 4; fill: rgb(173,207,235); fill-rule: nonzero; opacity: 1;" vector-effect="non-scaling-stroke"  transform=" translate(-850, -6495.33)" d="M 819 7521 C 801 7507 776 7433 696 7150 L 595 6798 L 320 6683 C 48 6570 0 6543 0 6502 C 0 6461 36 6440 310 6320 L 590 6197 L 605 6146 C 613 6118 653 5967 695 5810 C 736 5653 775 5513 781 5499 C 803 5443 877 5436 904 5488 C 911 5503 959 5664 1010 5845 C 1061 6027 1108 6180 1114 6187 C 1120 6194 1249 6251 1400 6315 C 1551 6378 1681 6438 1688 6447 C 1704 6469 1704 6511 1688 6533 C 1681 6542 1552 6603 1401 6669 C 1250 6735 1123 6793 1119 6797 C 1114 6802 1070 6957 1021 7143 C 971 7329 926 7490 920 7500 C 898 7541 855 7550 819 7521 z M 925 6959 C 959 6830 991 6718 994 6709 C 1003 6689 1003 6689 1248 6581 C 1360 6532 1448 6490 1443 6487 C 1439 6484 1352 6447 1250 6405 C 1148 6363 1048 6319 1028 6309 C 986 6288 993 6306 908 6000 C 880 5898 854 5812 850 5807 C 847 5803 816 5905 781 6034 C 746 6163 712 6278 704 6288 C 697 6299 594 6349 475 6401 C 357 6453 260 6497 260 6500 C 260 6503 357 6545 475 6594 C 593 6644 696 6690 704 6698 C 712 6706 749 6822 787 6956 C 824 7089 856 7197 858 7195 C 860 7194 890 7087 925 6959 z" stroke-linecap="round" />
</g>
<g transform="matrix(0.06 0 0 0.06 712.39 749.64)" id="d78f1026-b866-4650-8af8-2013e2b9b97b"  >
<path style="stroke: rgb(0,0,0); stroke-width: 0; stroke-dasharray: none; stroke-linecap: butt; stroke-dashoffset: 0; stroke-linejoin: miter; stroke-miterlimit: 4; fill: rgb(205,193,158); fill-rule: nonzero; opacity: 1;" vector-effect="non-scaling-stroke"  transform=" translate(-6400.28, -3867.94)" d="M 385 7719 C -80 7651 -122 7331 262 6793 C 690 6195 1641 5354 2921 4444 C 3067 4340 3216 4235 3252 4210 L 3317 4166 L 3323 3990 C 3332 3765 3355 3601 3410 3378 C 3601 2608 4105 1902 4800 1431 C 5688 828 6796 660 7760 981 C 7928 1037 8090 1107 8242 1190 C 8312 1229 8373 1260 8376 1260 C 8380 1260 8486 1212 8614 1154 C 9932 547 11082 149 11870 29 C 12058 0 12366 -3 12478 23 C 12680 68 12783 164 12797 318 C 12831 689 12263 1386 11215 2261 C 10851 2565 10290 2995 9874 3289 L 9685 3422 L 9688 3562 C 9693 3719 9679 3905 9649 4090 C 9562 4624 9331 5137 8972 5590 C 8866 5724 8547 6038 8410 6144 C 7611 6761 6643 7015 5693 6855 C 5326 6793 4913 6636 4612 6444 C 4583 6425 4556 6410 4552 6410 C 4548 6410 4456 6451 4350 6501 C 2550 7343 1023 7812 385 7719 z M 1100 7611 C 1823 7497 2922 7119 4145 6562 C 4494 6403 4520 6391 4520 6385 C 4520 6378 4494 6390 4300 6480 C 3331 6931 2348 7301 1645 7480 C 1257 7578 1065 7610 802 7617 C 532 7625 418 7604 305 7525 C 244 7483 211 7436 193 7367 C 176 7302 177 7286 196 7193 C 284 6763 923 6061 2030 5175 C 2267 4985 2815 4575 3085 4385 C 3201 4304 3302 4231 3310 4222 C 3337 4195 3053 4393 2750 4614 C 1452 5560 521 6441 250 6980 C 67 7345 142 7555 480 7626 C 578 7646 927 7638 1100 7611 z M 1616 7230 C 2231 7138 3107 6846 4165 6380 C 4281 6329 4376 6287 4378 6285 C 4379 6284 4375 6278 4368 6272 C 4359 6265 4327 6275 4255 6307 C 3642 6581 2981 6832 2484 6979 C 2045 7109 1740 7168 1464 7177 C 1217 7185 1093 7157 1000 7074 C 943 7022 920 6971 920 6890 C 919 6659 1122 6342 1550 5906 C 1979 5469 2468 5060 3227 4502 C 3303 4447 3337 4415 3334 4406 C 3327 4389 3301 4407 2915 4695 C 1977 5395 1290 6033 982 6490 C 638 7001 765 7273 1340 7255 C 1420 7252 1544 7241 1616 7230 z M 3230 6060 C 3400 6039 3624 5988 3855 5918 C 3910 5901 3957 5886 3958 5884 C 3960 5883 3937 5851 3907 5813 C 3715 5573 3561 5287 3454 4971 C 3449 4956 3360 5038 3172 5228 C 2810 5596 2679 5875 2811 5997 C 2880 6060 3034 6083 3230 6060 z M 9865 3260 C 10656 2698 11321 2154 11823 1660 C 12230 1260 12454 983 12581 725 C 12748 384 12671 174 12355 109 C 12242 86 12009 84 11830 105 C 11202 179 10262 479 9125 968 C 8814 1102 8513 1237 8454 1270 C 8390 1305 8434 1287 8635 1195 C 8740 1147 8965 1048 9135 975 C 10820 251 12037 -39 12472 177 C 12660 270 12685 469 12545 752 C 12267 1313 11268 2245 9873 3244 C 9767 3320 9680 3384 9680 3387 C 9680 3390 9686 3388 9693 3383 C 9699 3378 9777 3322 9865 3260 z M 9908 3033 C 11142 2108 11911 1320 12016 874 C 12059 688 11985 560 11801 504 C 11414 386 10502 595 9293 1079 C 9141 1140 8579 1379 8571 1386 C 8568 1389 8571 1395 8577 1401 C 8586 1410 8647 1387 8807 1318 C 9685 935 10531 659 11090 573 C 11257 548 11571 548 11660 574 C 11959 661 11980 903 11722 1287 C 11423 1732 10754 2358 9881 3010 C 9744 3113 9661 3182 9660 3193 C 9660 3202 9663 3210 9666 3210 C 9669 3210 9778 3130 9908 3033 z M 9705 2440 C 9958 2171 10081 1952 10056 1816 C 10027 1663 9786 1622 9385 1701 C 9300 1718 9022 1788 9012 1796 C 9010 1797 9032 1827 9062 1862 C 9209 2036 9384 2321 9459 2508 C 9470 2534 9486 2572 9495 2593 L 9511 2632 L 9573 2573 C 9606 2541 9666 2481 9705 2440 z" stroke-linecap="round" />
</g>
<g transform="matrix(0.07 0 0 -0.07 570.86 515)"  >
<path style="stroke: none; stroke-width: 1; stroke-dasharray: none; stroke-linecap: butt; stroke-dashoffset: 0; stroke-linejoin: miter; stroke-miterlimit: 4; fill: rgb(173,207,235); fill-rule: nonzero; opacity: 1;" vector-effect="non-scaling-stroke"  transform=" translate(-7520.23, -6045.55)" d="M 7482 7069 C 7469 7056 7427 6922 7365 6702 C 7311 6511 7262 6352 7256 6348 C 7250 6344 7125 6290 6978 6229 C 6831 6167 6701 6108 6690 6098 C 6665 6074 6664 6028 6689 6006 C 6700 5996 6831 5935 6981 5869 C 7131 5803 7255 5748 7257 5746 C 7259 5744 7297 5608 7341 5444 C 7385 5279 7427 5121 7436 5092 C 7461 5003 7504 4978 7554 5023 C 7575 5041 7594 5095 7660 5330 C 7705 5487 7750 5644 7760 5680 L 7780 5745 L 8055 5860 C 8207 5923 8340 5983 8351 5993 C 8371 6012 8376 6050 8361 6079 C 8355 6089 8232 6149 8067 6221 L 7782 6344 L 7689 6695 C 7590 7065 7580 7090 7526 7090 C 7512 7090 7492 7081 7482 7069 z" stroke-linecap="round" />
</g>
<g transform="matrix(0.07 0 0 -0.07 839.77 536.94)"  >
<path style="stroke: none; stroke-width: 1; stroke-dasharray: none; stroke-linecap: butt; stroke-dashoffset: 0; stroke-linejoin: miter; stroke-miterlimit: 4; fill: rgb(173,207,235); fill-rule: nonzero; opacity: 1;" vector-effect="non-scaling-stroke"  transform=" translate(-11439.58, -5725.85)" d="M 11315 6102 C 11199 6062 11110 5984 11062 5882 C 11038 5832 11035 5812 11035 5725 C 11035 5634 11038 5620 11065 5565 C 11146 5404 11333 5307 11501 5338 C 11642 5364 11754 5447 11813 5570 C 11840 5628 11844 5645 11844 5725 C 11845 5806 11842 5822 11813 5882 C 11777 5959 11705 6037 11639 6071 C 11540 6121 11408 6134 11315 6102 z M 11570 5944 C 11636 5908 11676 5859 11696 5791 C 11722 5705 11698 5619 11629 5551 C 11588 5510 11557 5494 11485 5479 C 11287 5439 11113 5638 11189 5816 C 11252 5963 11427 6022 11570 5944 z" stroke-linecap="round" />
</g>
<g transform="matrix(0.07 0 0 -0.07 448.1 577.28)"  >
<path style="stroke: none; stroke-width: 1; stroke-dasharray: none; stroke-linecap: butt; stroke-dashoffset: 0; stroke-linejoin: miter; stroke-miterlimit: 4; fill: rgb(173,207,235); fill-rule: nonzero; opacity: 1;" vector-effect="non-scaling-stroke"  transform=" translate(-5731.11, -5137.82)" d="M 5593 5511 C 5488 5475 5405 5401 5356 5300 C 5328 5241 5325 5226 5325 5140 C 5325 5055 5328 5038 5356 4980 C 5475 4729 5811 4667 6013 4859 C 6200 5036 6172 5327 5955 5465 C 5928 5483 5883 5504 5856 5513 C 5790 5536 5661 5534 5593 5511 z M 5855 5363 C 5944 5316 5994 5236 5994 5140 C 5994 5066 5972 5015 5918 4963 C 5816 4865 5636 4866 5537 4965 C 5481 5022 5465 5060 5465 5135 C 5465 5244 5513 5318 5615 5367 C 5657 5387 5676 5390 5740 5387 C 5790 5385 5828 5376 5855 5363 z" stroke-linecap="round" />
</g>
<g transform="matrix(0.07 0 0 -0.07 210.7 584.27)"  >
<path style="stroke: none; stroke-width: 1; stroke-dasharray: none; stroke-linecap: butt; stroke-dashoffset: 0; stroke-linejoin: miter; stroke-miterlimit: 4; fill: rgb(173,207,235); fill-rule: nonzero; opacity: 1;" vector-effect="non-scaling-stroke"  transform=" translate(-2271, -5035.96)" d="M 2159 5416 C 2044 5384 1941 5298 1892 5192 C 1868 5142 1865 5123 1865 5035 C 1865 4948 1868 4928 1892 4878 C 1993 4661 2262 4577 2475 4696 C 2616 4775 2701 4948 2671 5097 C 2625 5330 2387 5478 2159 5416 z M 2381 5263 C 2547 5190 2585 4987 2458 4860 C 2380 4781 2243 4761 2144 4812 C 1958 4909 1951 5141 2131 5253 C 2198 5294 2302 5298 2381 5263 z" stroke-linecap="round" />
</g>
<g transform="matrix(0.07 0 0 -0.07 170.03 685.22)"  >
<path style="stroke: none; stroke-width: 1; stroke-dasharray: none; stroke-linecap: butt; stroke-dashoffset: 0; stroke-linejoin: miter; stroke-miterlimit: 4; fill: rgb(173,207,235); fill-rule: nonzero; opacity: 1;" vector-effect="non-scaling-stroke"  transform=" translate(-1678.18, -3564.66)" d="M 1579 3876 C 1428 3818 1351 3723 1342 3585 C 1331 3410 1462 3265 1650 3243 C 1708 3236 1806 3261 1861 3296 C 1963 3360 2015 3454 2015 3570 C 2014 3636 2010 3653 1980 3708 C 1921 3820 1821 3881 1690 3887 C 1643 3889 1602 3885 1579 3876 z" stroke-linecap="round" />
</g>
<g transform="matrix(0.07 0 0 -0.07 274.51 702.35)"  >
<path style="stroke: none; stroke-width: 1; stroke-dasharray: none; stroke-linecap: butt; stroke-dashoffset: 0; stroke-linejoin: miter; stroke-miterlimit: 4; fill: rgb(173,207,235); fill-rule: nonzero; opacity: 1;" vector-effect="non-scaling-stroke"  transform=" translate(-3200.98, -3314.94)" d="M 3084 3692 C 2881 3632 2752 3420 2803 3227 C 2885 2914 3288 2816 3509 3055 C 3627 3183 3644 3383 3548 3526 C 3449 3672 3254 3742 3084 3692 z M 3271 3559 C 3358 3532 3412 3487 3446 3415 C 3488 3327 3470 3219 3402 3147 C 3301 3040 3115 3037 3012 3140 C 2936 3215 2913 3328 2955 3415 C 3010 3528 3157 3595 3271 3559 z" stroke-linecap="round" />
</g>
<g transform="matrix(0.07 0 0 -0.07 354.63 778.05)"  >
<path style="stroke: none; stroke-width: 1; stroke-dasharray: none; stroke-linecap: butt; stroke-dashoffset: 0; stroke-linejoin: miter; stroke-miterlimit: 4; fill: rgb(173,207,235); fill-rule: nonzero; opacity: 1;" vector-effect="non-scaling-stroke"  transform=" translate(-4368.7, -2211.63)" d="M 4343 3247 C 4314 3234 4313 3232 4206 2851 C 4154 2668 4110 2517 4108 2515 C 4106 2513 3982 2461 3832 2398 C 3682 2335 3550 2276 3539 2267 C 3515 2246 3513 2188 3536 2169 C 3546 2161 3677 2101 3829 2034 L 4105 1913 L 4201 1555 C 4270 1298 4303 1193 4316 1183 C 4342 1164 4386 1167 4407 1189 C 4418 1201 4465 1350 4524 1559 L 4623 1909 L 4844 2001 C 5199 2149 5207 2153 5215 2189 C 5227 2245 5208 2257 4913 2386 C 4760 2453 4632 2514 4628 2521 C 4624 2529 4580 2687 4530 2874 C 4481 3060 4433 3221 4425 3230 C 4405 3252 4370 3259 4343 3247 z" stroke-linecap="round" />
</g>
<g transform="matrix(0.07 0 0 -0.07 235.95 902.65)"  >
<path style="stroke: none; stroke-width: 1; stroke-dasharray: none; stroke-linecap: butt; stroke-dashoffset: 0; stroke-linejoin: miter; stroke-miterlimit: 4; fill: rgb(173,207,235); fill-rule: nonzero; opacity: 1;" vector-effect="non-scaling-stroke"  transform=" translate(-2639.06, -395.72)" d="M 2519 771 C 2413 737 2318 655 2267 554 C 2258 537 2246 494 2239 457 C 2203 263 2336 68 2540 15 C 2732 -35 2935 60 3018 238 C 3042 288 3045 308 3045 395 C 3045 483 3042 502 3018 552 C 2932 736 2711 833 2519 771 z M 2762 620 C 2889 555 2943 418 2889 300 C 2844 201 2757 146 2645 146 C 2402 145 2286 409 2456 574 C 2534 650 2667 670 2762 620 z" stroke-linecap="round" />
</g>
<g transform="matrix(NaN NaN NaN NaN 0 0)"  >
<g style=""   >
</g>
</g>
<g transform="matrix(NaN NaN NaN NaN 0 0)"  >
<g style=""   >
</g>
</g>
<g transform="matrix(NaN NaN NaN NaN 0 0)"  >
<g style=""   >
</g>
</g>
<g transform="matrix(NaN NaN NaN NaN 0 0)"  >
<g style=""   >
</g>
</g>
<g transform="matrix(NaN NaN NaN NaN 0 0)"  >
<g style=""   >
</g>
</g>
<g transform="matrix(NaN NaN NaN NaN 0 0)"  >
<g style=""   >
</g>
</g>
<g transform="matrix(NaN NaN NaN NaN 0 0)"  >
<g style=""   >
</g>
</g>
<g transform="matrix(NaN NaN NaN NaN 0 0)"  >
<g style=""   >
</g>
</g>
<g transform="matrix(NaN NaN NaN NaN 0 0)"  >
<g style=""   >
</g>
</g>
<g transform="matrix(NaN NaN NaN NaN 0 0)"  >
<g style=""   >
</g>
</g>
<g transform="matrix(NaN NaN NaN NaN 0 0)"  >
<g style=""   >
</g>
</g>
<g transform="matrix(NaN NaN NaN NaN 0 0)"  >
<g style=""   >
</g>
</g>
<g transform="matrix(NaN NaN NaN NaN 0 0)"  >
<g style=""   >
</g>
</g>
<g transform="matrix(NaN NaN NaN NaN 0 0)"  >
<g style=""   >
</g>
</g>
<g transform="matrix(NaN NaN NaN NaN 0 0)"  >
<g style=""   >
</g>
</g>
<g transform="matrix(NaN NaN NaN NaN 0 0)"  >
<g style=""   >
</g>
</g>
<g transform="matrix(NaN NaN NaN NaN 0 0)"  >
<g style=""   >
</g>
</g>
<g transform="matrix(NaN NaN NaN NaN 0 0)"  >
<g style=""   >
</g>
</g>
<g transform="matrix(NaN NaN NaN NaN 0 0)"  >
<g style=""   >
</g>
</g>
<g transform="matrix(NaN NaN NaN NaN 0 0)"  >
<g style=""   >
</g>
</g>
<g transform="matrix(NaN NaN NaN NaN 0 0)"  >
<g style=""   >
</g>
</g>
<g transform="matrix(NaN NaN NaN NaN 0 0)"  >
<g style=""   >
</g>
</g>
<g transform="matrix(NaN NaN NaN NaN 0 0)"  >
<g style=""   >
</g>
</g>
<g transform="matrix(NaN NaN NaN NaN 0 0)"  >
<g style=""   >
</g>
</g>
<g transform="matrix(NaN NaN NaN NaN 0 0)"  >
<g style=""   >
</g>
</g>
<g transform="matrix(NaN NaN NaN NaN 0 0)"  >
<g style=""   >
</g>
</g>
<g transform="matrix(NaN NaN NaN NaN 0 0)"  >
<g style=""   >
</g>
</g>
<g transform="matrix(20.17 0 0 20.17 450.42 540)" id="1f7464c1-1fba-4c58-a79d-c2cd7ca6739b"  >
<path style="stroke: rgb(0,0,0); stroke-width: 0; stroke-dasharray: none; stroke-linecap: butt; stroke-dashoffset: 0; stroke-linejoin: miter; stroke-miterlimit: 4; fill: rgb(230,236,239); fill-rule: nonzero; opacity: 1;" vector-effect="non-scaling-stroke"  transform=" translate(-19.65, -20.16)" d="M 24.89159 11.42685 C 24.93674 11.60738 24.82696 11.79222 24.70936 11.93677 C 24.50206 12.178329999999999 24.253610000000002 12.38145 23.98875 12.55838 C 23.72354 12.73575 23.43869 12.88106 23.15667 13.031279999999999 C 22.874399999999998 13.180879999999998 22.588479999999997 13.32838 22.316679999999998 13.50137 C 22.043789999999998 13.67192 21.78354 13.860759999999999 21.52517 14.05001 C 21.0097 14.42939 20.502209999999998 14.817680000000001 19.99034 15.20107 L 18.799409999999998 16.09759 C 18.90308 15.88995 19.03116 15.69346 19.18178 15.513860000000001 C 19.4236 15.227490000000001 19.70873 14.97615 20.01233 14.74793 C 20.62155 14.29385 21.31259 13.92692 21.931369999999998 13.42617 C 22.24235 13.18121 22.52895 12.886690000000002 22.76739 12.57585 C 23.010469999999998 12.26876 23.22746 11.953550000000002 23.498839999999998 11.69109 C 23.633919999999996 11.55999 23.781229999999997 11.441820000000002 23.94334 11.34797 C 24.105059999999998 11.25671 24.28332 11.17787 24.465429999999998 11.16648 C 24.64278 11.15404 24.84142 11.24869 24.89159 11.42685 z M 37.7617 8.4034 C 37.52383 8.71026 37.18147 8.90969 36.87793 9.064319999999999 C 34.98549 10.008359999999998 32.57948 10.10189 30.77592 11.117859999999999 C 30.32913 11.357119999999998 29.98437 11.574139999999998 29.69078 11.800659999999999 C 29.22493 12.164499999999999 29.00602 12.39646 29.43011 12.814729999999999 C 30.26354 13.53801 30.41182 14.5244 30.101679999999998 15.61708 C 29.853939999999998 16.4882 29.172439999999998 17.22464 28.32311 17.53907 C 27.58407 17.81102 27.370169999999998 17.17954 27.67436 16.624039999999997 C 27.94361 15.770489999999997 27.5735 15.112659999999998 27.22143 14.416139999999997 C 26.70795 13.328549999999996 26.05019 13.782789999999997 25.37826 14.498549999999996 C 24.73297 15.136889999999996 24.0248 15.681409999999996 23.32429 16.250889999999995 C 22.147850000000002 17.181979999999996 20.91245 18.065909999999995 19.65258 18.878059999999994 C 18.29609 19.753019999999996 16.78699 20.427099999999996 15.53148 21.443899999999996 C 12.82978 23.595809999999997 10.77804 27.026809999999998 8.77955 29.891339999999996 C 8.63058 30.081979999999994 8.63396 30.171999999999997 8.78632 30.355799999999995 C 9.24395 30.947749999999996 9.73669 31.490019999999994 10.15239 32.12689999999999 C 10.864600000000001 33.21804999999999 11.31903 34.26089999999999 11.54167 35.314919999999994 C 11.63472 35.63737 11.58807 36.104679999999995 11.2268 36.22456 C 10.857190000000001 36.35136 10.55897 35.98074999999999 10.41573 35.802929999999996 C 9.81072 35.051829999999995 8.87485 34.567449999999994 7.9122900000000005 34.507299999999994 C 7.468780000000001 34.50064999999999 6.917280000000001 34.46639999999999 6.684050000000001 34.015159999999995 C 6.205250000000001 34.51391999999999 5.32605 34.630309999999994 4.676470000000001 34.85332 C 3.662960000000001 35.224759999999996 2.874410000000001 36.10715999999999 2.002070000000001 36.7694 C 1.799980000000001 36.96203 1.432910000000001 37.01139 1.293880000000001 36.73301 C 1.214150000000001 36.55203 1.328460000000001 36.37737 1.377230000000001 36.30282 C 2.372300000000001 34.78077 3.5695700000000015 33.40051 4.935670000000001 32.200329999999994 C 5.547280000000001 31.622389999999992 6.351210000000001 31.211509999999993 6.895290000000001 30.567969999999995 C 7.239890000000001 30.081659999999996 7.244450000000001 29.407579999999996 7.248710000000001 28.755539999999996 C 7.465010000000001 23.179909999999996 10.54353 15.911249999999995 13.170860000000001 12.023649999999996 C 13.53724 11.487969999999997 14.110170000000002 10.956809999999997 14.213550000000001 10.324629999999996 C 14.293590000000002 9.825979999999996 14.176350000000001 9.300539999999996 13.89187 8.883079999999996 C 13.625290000000001 8.491859999999996 13.13166 8.094309999999997 12.704160000000002 8.091599999999996 C 12.602700000000002 8.093149999999996 12.508070000000002 8.108159999999996 12.401010000000001 8.099169999999996 C 12.031490000000002 8.075289999999995 11.86818 7.684389999999995 12.12067 7.411549999999996 C 13.46275 6.244949999999996 15.483730000000001 5.783189999999996 17.196350000000002 6.1954299999999956 C 18.538850000000004 6.563859999999996 18.85827 6.716139999999996 20.012460000000004 5.7466699999999955 L 20.012460000000004 5.74659 C 23.167420000000003 3.54463 28.096790000000006 2.86961 31.773690000000002 3.81123 C 32.972480000000004 4.15692 33.90493 4.65559 34.51471 5.63424 C 35.07832 6.553100000000001 35.52014 6.66613 36.557 6.54986 C 37.8498 6.42821 38.42446 7.47992 37.7617 8.4034 z M 7.91358 30.69516 C 7.81438 30.9163 7.73401 31.133490000000002 7.652539999999999 31.34868 L 7.405879999999999 31.987620000000003 L 7.1520899999999985 32.62382 C 7.065369999999999 32.836980000000004 6.976259999999998 33.050740000000005 6.898089999999998 33.28005 C 7.084299999999998 33.12456 7.237279999999998 32.938250000000004 7.369209999999998 32.73892 C 7.501159999999998 32.5394 7.612739999999998 32.32609 7.700019999999998 32.10318 C 7.788349999999998 31.880670000000002 7.8515099999999975 31.64834 7.890839999999997 31.4124 C 7.92997 31.17658 7.94457 30.93588 7.91358 30.69516 z M 10.44411 19.26658 C 10.067820000000001 19.91826 9.75413 20.60594 9.48851 21.31167 C 9.220889999999999 22.01705 9.00823 22.743199999999998 8.83821 23.47882 C 8.67392 24.21574 8.55255 24.962609999999998 8.489650000000001 25.71443 C 8.42478 26.46571 8.411320000000002 27.22148 8.47009 27.97173 C 8.54296 27.22304 8.624830000000001 26.48068 8.73465 25.743180000000002 C 8.84643 25.006220000000003 8.9791 24.273630000000004 9.14631 23.54868 C 9.307789999999999 22.82242 9.5041 22.10424 9.72105 21.3911 C 9.94002 20.67833 10.18654 19.9733 10.44411 19.26658 z M 27.90195 7.18473 C 27.98497 7.34356 28.18998 7.38813 28.36907 7.39545 C 28.6285 7.406090000000001 28.933600000000002 7.34686 29.047710000000002 7.113630000000001 C 29.109640000000002 6.98709 29.096840000000004 6.829980000000001 29.025250000000003 6.7086500000000004 C 28.953660000000003 6.587330000000001 28.827970000000004 6.50208 28.691250000000004 6.4682200000000005 C 28.432920000000003 6.4042200000000005 28.148640000000004 6.5253000000000005 27.985150000000004 6.73533 C 27.8862 6.86245 27.8273 7.04196 27.90195 7.18473 z M 18.28439 7.22698 C 18.279459999999997 7.21975 18.26961 7.2179 18.262379999999997 7.22283 C 17.940179999999998 7.4427900000000005 17.626929999999998 7.67533 17.314719999999998 7.90996 C 17.005989999999997 8.14881 16.701259999999998 8.39326 16.400719999999996 8.64318 C 16.101739999999996 8.89449 15.787739999999996 9.131799999999998 15.522839999999997 9.42058 C 15.256869999999997 9.70772 15.004489999999997 10.008709999999999 14.797309999999996 10.34972 C 14.794169999999996 10.35491 14.794079999999996 10.36167 14.797649999999996 10.36707 C 14.802579999999995 10.37454 14.812629999999995 10.37658 14.820089999999995 10.37165 C 15.152559999999996 10.15201 15.449689999999995 9.901850000000001 15.742739999999994 9.647680000000001 C 16.036879999999993 9.395140000000001 16.291429999999995 9.10096 16.570159999999994 8.830940000000002 C 16.847329999999996 8.559530000000002 17.129469999999994 8.292810000000001 17.416429999999995 8.030960000000002 C 17.699899999999996 7.7648800000000024 17.991119999999995 7.507200000000002 18.281869999999994 7.2477300000000024 C 18.28771 7.24251 18.28893 7.23363 18.28439 7.22698 z M 24.94061 11.41474 C 24.89322 11.20199 24.66796 11.08043 24.46504 11.08131 C 24.256809999999998 11.07694 24.06297 11.14497 23.88063 11.22716 C 23.69821 11.31238 23.53001 11.42504 23.37454 11.55065 C 23.06317 11.8035 22.80468 12.10732 22.55062 12.39467 C 22.29865 12.68554 22.031029999999998 12.940059999999999 21.731749999999998 13.17496 C 21.133329999999997 13.64028 20.4544 14.02238 19.831699999999998 14.51399 C 19.522309999999997 14.76062 19.228659999999998 15.033669999999999 18.978109999999997 15.34804 C 18.729999999999997 15.66307 18.526199999999996 16.02238 18.416669999999996 16.41523 L 18.415859999999995 16.41813 C 18.406469999999995 16.45266 18.413019999999996 16.491030000000002 18.436879999999995 16.52128 C 18.476869999999995 16.571920000000002 18.550339999999995 16.580560000000002 18.600979999999996 16.540570000000002 L 21.611809999999995 14.163340000000002 C 21.861259999999994 13.964240000000002 22.114119999999996 13.770940000000001 22.374069999999996 13.587940000000001 C 22.633989999999997 13.40534 22.907429999999994 13.241590000000002 23.185199999999995 13.083110000000001 C 23.734209999999994 12.762530000000002 24.311979999999995 12.450700000000001 24.733409999999996 11.957260000000002 C 24.797849999999997 11.883510000000001 24.856469999999995 11.803130000000001 24.898629999999997 11.71244 C 24.94043 11.62274 24.96458 11.5175 24.94061 11.41474 z M 29.20614 11.36572 C 29.203310000000002 11.35744 29.19431 11.35301 29.186030000000002 11.355839999999999 C 28.810850000000002 11.48383 28.44206 11.630109999999998 28.075170000000004 11.782329999999998 C 27.710600000000003 11.939509999999999 27.349910000000005 12.106789999999998 26.993640000000003 12.283919999999998 C 26.638680000000004 12.462699999999998 26.273400000000002 12.628299999999998 25.947010000000002 12.858119999999998 C 25.62009 13.086009999999998 25.305640000000004 13.333659999999998 25.03121 13.631769999999998 C 25.02708 13.636259999999998 25.02567 13.642919999999998 25.02816 13.648929999999998 C 25.03159 13.657189999999998 25.04105 13.661099999999998 25.0493 13.657679999999997 C 25.422919999999998 13.503069999999997 25.76889 13.315659999999998 26.11369 13.126729999999997 C 26.45902 12.939729999999997 26.77677 12.706729999999997 27.115139999999997 12.505719999999997 C 27.452209999999997 12.303059999999997 27.795139999999996 12.109329999999996 28.143469999999997 11.924869999999997 C 28.489489999999996 11.735449999999997 28.842869999999998 11.559439999999997 29.198109999999996 11.385049999999996 C 29.20518 11.3816 29.20875 11.37335 29.20614 11.36572 z M 37.54382 7.24217 C 37.54248 7.23346 37.53433 7.22748 37.525619999999996 7.22882 C 36.91121999999999 7.323189999999999 36.31211999999999 7.46829 35.716739999999994 7.62571 C 35.41774999999999 7.703399999999999 35.128449999999994 7.8023299999999995 34.840059999999994 7.87325 C 34.55232999999999 7.9497 34.26210999999999 7.984179999999999 33.963379999999994 7.97635 C 33.36612 7.9572 32.7691 7.80151 32.1665 7.67009 C 31.564149999999998 7.54486 30.93309 7.44599 30.31919 7.55664 C 30.31112 7.558199999999999 30.3053 7.56581 30.30629 7.57409 C 30.30733 7.58276 30.31521 7.58894 30.32388 7.5879 C 30.936909999999997 7.52094 31.541269999999997 7.659210000000001 32.129059999999996 7.823650000000001 C 32.719919999999995 7.983860000000001 33.314339999999994 8.17486 33.949799999999996 8.228900000000001 C 34.2658 8.255780000000001 34.594539999999995 8.237520000000002 34.90721 8.17894 C 35.22015 8.117040000000001 35.51731 8.026200000000001 35.80802 7.928390000000001 C 36.39118 7.730430000000001 36.97062 7.520120000000001 37.53476 7.259090000000001 C 37.54102 7.25618 37.54492 7.24937 37.54382 7.24217 z" stroke-linecap="round" />
</g>
<g transform="matrix(NaN NaN NaN NaN 0 0)"  >
<g style=""   >
</g>
</g>
<g transform="matrix(NaN NaN NaN NaN 0 0)"  >
<g style=""   >
</g>
</g>
<g transform="matrix(NaN NaN NaN NaN 0 0)"  >
<g style=""   >
</g>
</g>
<g transform="matrix(NaN NaN NaN NaN 0 0)"  >
<g style=""   >
</g>
</g>
<g transform="matrix(NaN NaN NaN NaN 0 0)"  >
<g style=""   >
</g>
</g>
</svg>